<?xml version="1.0" encoding="UTF-8" standalone="no"?>
<!DOCTYPE svg PUBLIC "-//W3C//DTD SVG 1.1//EN" "http://www.w3.org/Graphics/SVG/1.1/DTD/svg11.dtd">
<svg width="100%" height="100%" viewBox="0 0 256 256" version="1.1" xmlns="http://www.w3.org/2000/svg" xmlns:xlink="http://www.w3.org/1999/xlink" xml:space="preserve" xmlns:serif="http://www.serif.com/" style="fill-rule:evenodd;clip-rule:evenodd;stroke-linejoin:round;stroke-miterlimit:2;">
    <g transform="matrix(2.75834,0,0,2.75834,33.8166,12.8081)">
        <g transform="matrix(1,0,0,1,-320.14,-100.44)">
            <path d="M355.37,127.9L367.37,115.49C368.094,114.756 368.138,113.576 367.47,112.79L359,102.67C357.823,101.259 356.077,100.443 354.24,100.443C352.403,100.443 350.657,101.259 349.48,102.67L340.48,113.36C339.805,114.154 339.858,115.349 340.6,116.08L352.43,127.92C352.808,128.324 353.337,128.554 353.891,128.554C354.454,128.554 354.991,128.316 355.37,127.9Z" style="fill:rgb(66,152,211);fill-rule:nonzero;"/>
        </g>
        <g transform="matrix(1,0,0,1,-320.14,-100.44)">
            <path d="M383.92,159.34C384.296,159.727 384.814,159.946 385.354,159.946C386.277,159.946 387.086,159.308 387.3,158.41C388.025,155.608 388.391,152.725 388.39,149.83L388.39,148.52C388.301,146.303 388,144.099 387.49,141.94C387.318,140.993 386.485,140.297 385.522,140.297C384.937,140.297 384.38,140.554 384,141L376.3,148.95C375.925,149.325 375.713,149.834 375.713,150.365C375.713,150.896 375.925,151.405 376.3,151.78L383.92,159.34Z" style="fill:rgb(66,152,211);fill-rule:nonzero;"/>
        </g>
        <g transform="matrix(1,0,0,1,-320.14,-100.44)">
            <path d="M342.17,152.17L352.65,162.65C353.026,163.038 353.545,163.257 354.085,163.257C354.625,163.257 355.144,163.038 355.52,162.65L366,151.86C366.375,151.485 366.587,150.976 366.587,150.445C366.587,149.914 366.375,149.405 366,149.03L355.52,138.55C355.143,138.159 354.623,137.938 354.08,137.938C353.537,137.938 353.017,138.159 352.64,138.55L342.2,149.32C341.809,149.697 341.588,150.217 341.588,150.76C341.588,151.288 341.797,151.795 342.17,152.17Z" style="fill:rgb(66,152,211);fill-rule:nonzero;"/>
        </g>
        <g transform="matrix(1,0,0,1,-320.14,-100.44)">
            <path d="M359.19,134.61L369.67,145.09C370.046,145.478 370.565,145.697 371.105,145.697C371.645,145.697 372.164,145.478 372.54,145.09L383,134.3C383.654,133.633 383.759,132.593 383.25,131.81C383.04,131.46 382.82,131.11 382.59,130.81C381.319,128.935 379.865,127.189 378.25,125.6L377.91,125.22L375.91,122.79L373.67,120.12C373.29,119.656 372.721,119.386 372.122,119.386C371.573,119.386 371.048,119.612 370.67,120.01L359.22,131.82C358.461,132.584 358.447,133.83 359.19,134.61Z" style="fill:rgb(66,152,211);fill-rule:nonzero;"/>
        </g>
        <g transform="matrix(1,0,0,1,-320.14,-100.44)">
            <path d="M348.91,166.59L338.43,156.11C338.054,155.722 337.535,155.503 336.995,155.503C336.455,155.503 335.936,155.722 335.56,156.11L326,166C325.331,166.677 325.235,167.743 325.77,168.53C328.685,172.959 332.587,176.653 337.17,179.32C337.971,179.808 339.014,179.67 339.66,178.99L348.96,169.4C349.71,168.613 349.688,167.35 348.91,166.59Z" style="fill:rgb(66,152,211);fill-rule:nonzero;"/>
        </g>
        <g transform="matrix(1,0,0,1,-320.14,-100.44)">
            <path d="M352.73,173.3L346.35,179.87C345.965,180.246 345.748,180.762 345.748,181.3C345.748,182.248 346.421,183.071 347.35,183.26C351.886,184.193 356.564,184.193 361.1,183.26C362.036,183.078 362.719,182.251 362.719,181.297C362.719,180.75 362.495,180.227 362.1,179.85L355.52,173.28C354.743,172.534 353.496,172.543 352.73,173.3Z" style="fill:rgb(66,152,211);fill-rule:nonzero;"/>
        </g>
        <g transform="matrix(1,0,0,1,-320.14,-100.44)">
            <path d="M338.35,145.46L348.79,134.69C349.165,134.315 349.377,133.806 349.377,133.275C349.377,132.744 349.165,132.235 348.79,131.86L337.44,120.51C337.063,120.117 336.542,119.895 335.997,119.895C335.393,119.895 334.819,120.169 334.44,120.64L332.67,122.75L330.67,125.18L330.33,125.56C328.715,127.149 327.261,128.895 325.99,130.77C325.583,131.39 325.193,132.02 324.82,132.66C324.351,133.45 324.484,134.467 325.14,135.11L335.51,145.48C335.885,145.852 336.392,146.062 336.92,146.062C337.458,146.062 337.974,145.845 338.35,145.46Z" style="fill:rgb(66,152,211);fill-rule:nonzero;"/>
        </g>
        <g transform="matrix(1,0,0,1,-320.14,-100.44)">
            <path d="M369.75,155.74L359.31,166.51C358.935,166.885 358.723,167.394 358.723,167.925C358.723,168.456 358.935,168.965 359.31,169.34L369,179C369.651,179.66 370.68,179.785 371.47,179.3C376.103,176.584 380.033,172.816 382.94,168.3C383.476,167.506 383.37,166.434 382.69,165.76L372.62,155.7C372.245,155.324 371.735,155.113 371.204,155.113C370.654,155.113 370.128,155.34 369.75,155.74Z" style="fill:rgb(66,152,211);fill-rule:nonzero;"/>
        </g>
        <g transform="matrix(1,0,0,1,-320.14,-100.44)">
            <path d="M324.26,141.93C323.883,141.535 323.36,141.311 322.813,141.311C321.859,141.311 321.032,141.994 320.85,142.93C320.474,144.762 320.25,146.621 320.18,148.49L320.18,149.8C320.18,152.771 320.57,155.73 321.34,158.6C321.557,159.494 322.364,160.129 323.284,160.129C323.835,160.129 324.362,159.901 324.74,159.5L331.81,152.22C332.185,151.845 332.397,151.336 332.397,150.805C332.397,150.274 332.185,149.765 331.81,149.39L324.26,141.93Z" style="fill:rgb(66,152,211);fill-rule:nonzero;"/>
        </g>
    </g>
</svg>
