<?xml version="1.0" encoding="UTF-8" standalone="no"?>
<!DOCTYPE svg PUBLIC "-//W3C//DTD SVG 1.1//EN" "http://www.w3.org/Graphics/SVG/1.1/DTD/svg11.dtd">
<svg width="100%" height="100%" viewBox="0 0 256 256" version="1.1" xmlns="http://www.w3.org/2000/svg" xmlns:xlink="http://www.w3.org/1999/xlink" xml:space="preserve" xmlns:serif="http://www.serif.com/" style="fill-rule:evenodd;clip-rule:evenodd;stroke-linejoin:round;stroke-miterlimit:2;">
    <path d="M130.993,88.552L164.093,54.321C166.09,52.296 166.211,49.042 164.369,46.874L141.006,18.959C137.759,15.067 132.943,12.816 127.876,12.816C122.809,12.816 117.993,15.067 114.746,18.959L89.921,48.446C88.059,50.636 88.206,53.932 90.252,55.949L122.883,88.607C123.926,89.722 125.385,90.356 126.913,90.356C128.466,90.356 129.948,89.7 130.993,88.552Z" style="fill:#c7c700;fill-rule:nonzero;"/>
    <path d="M209.744,175.274C210.781,176.342 212.209,176.946 213.699,176.946C216.245,176.946 218.476,175.186 219.067,172.709C221.067,164.98 222.076,157.028 222.073,149.043L222.073,145.429C221.828,139.314 220.998,133.234 219.591,127.279C219.116,124.667 216.819,122.747 214.162,122.747C212.549,122.747 211.012,123.456 209.964,124.686L188.725,146.615C187.691,147.65 187.106,149.054 187.106,150.518C187.106,151.983 187.691,153.387 188.725,154.421L209.744,175.274Z" style="fill:#c7c700;fill-rule:nonzero;"/>
    <path d="M94.583,155.497L123.49,184.404C124.527,185.475 125.959,186.079 127.448,186.079C128.938,186.079 130.37,185.475 131.407,184.404L160.314,154.642C161.348,153.608 161.933,152.204 161.933,150.739C161.933,149.274 161.348,147.87 160.314,146.836L131.407,117.928C130.367,116.85 128.932,116.24 127.435,116.24C125.937,116.24 124.503,116.85 123.463,117.928L94.666,147.636C93.587,148.676 92.977,150.11 92.977,151.608C92.977,153.064 93.554,154.463 94.583,155.497Z" style="fill:#c7c700;fill-rule:nonzero;"/>
    <path d="M141.53,107.061L170.437,135.968C171.474,137.038 172.906,137.642 174.395,137.642C175.885,137.642 177.316,137.038 178.354,135.968L207.206,106.205C209.01,104.366 209.299,101.497 207.895,99.337C207.316,98.372 206.709,97.406 206.075,96.579C202.569,91.407 198.558,86.591 194.104,82.208L193.166,81.16L187.649,74.457L181.471,67.092C180.422,65.812 178.853,65.068 177.201,65.068C175.686,65.068 174.238,65.691 173.196,66.789L141.613,99.365C139.519,101.472 139.48,104.909 141.53,107.061Z" style="fill:#c7c700;fill-rule:nonzero;"/>
    <path d="M113.174,195.272L84.267,166.365C83.23,165.295 81.798,164.691 80.308,164.691C78.819,164.691 77.387,165.295 76.35,166.365L49.98,193.645C48.135,195.512 47.87,198.453 49.346,200.623C57.387,212.84 68.15,223.029 80.791,230.386C83.001,231.732 85.878,231.351 87.659,229.476L113.312,203.023C115.381,200.852 115.32,197.369 113.174,195.272Z" style="fill:#c7c700;fill-rule:nonzero;"/>
    <path d="M123.711,213.781L106.113,231.903C105.051,232.94 104.452,234.363 104.452,235.847C104.452,238.462 106.309,240.732 108.871,241.254C121.383,243.827 134.286,243.827 146.798,241.254C149.38,240.752 151.264,238.471 151.264,235.839C151.264,234.33 150.646,232.888 149.557,231.848L131.407,213.726C129.263,211.668 125.824,211.693 123.711,213.781Z" style="fill:#c7c700;fill-rule:nonzero;"/>
    <path d="M84.046,136.989L112.843,107.281C113.877,106.247 114.462,104.843 114.462,103.378C114.462,101.914 113.877,100.51 112.843,99.475L81.536,68.168C80.496,67.084 79.059,66.472 77.556,66.472C75.89,66.472 74.306,67.227 73.261,68.527L68.379,74.347L62.862,81.049L61.924,82.098C57.469,86.481 53.459,91.297 49.953,96.469C48.83,98.179 47.754,99.916 46.726,101.682C45.432,103.861 45.799,106.666 47.608,108.44L76.212,137.044C77.247,138.07 78.645,138.649 80.102,138.649C81.586,138.649 83.009,138.051 84.046,136.989Z" style="fill:#c7c700;fill-rule:nonzero;"/>
    <path d="M170.658,165.344L141.861,195.052C140.826,196.086 140.242,197.49 140.242,198.955C140.242,200.419 140.826,201.823 141.861,202.858L168.589,229.503C170.385,231.324 173.223,231.669 175.402,230.331C188.182,222.839 199.022,212.446 207.04,199.989C208.519,197.799 208.226,194.842 206.351,192.983L178.574,165.234C177.54,164.197 176.133,163.615 174.668,163.615C173.151,163.615 171.7,164.241 170.658,165.344Z" style="fill:#c7c700;fill-rule:nonzero;"/>
    <path d="M45.181,127.252C44.141,126.162 42.698,125.544 41.19,125.544C38.558,125.544 36.277,127.428 35.775,130.01C34.738,135.063 34.12,140.191 33.927,145.346L33.927,148.96C33.927,157.155 35.003,165.317 37.127,173.233C37.725,175.699 39.951,177.451 42.489,177.451C44.009,177.451 45.462,176.822 46.505,175.716L66.006,155.635C67.041,154.601 67.626,153.197 67.626,151.732C67.626,150.267 67.041,148.863 66.006,147.829L45.181,127.252Z" style="fill:#c7c700;fill-rule:nonzero;"/>
</svg>
