<svg width="53" height="23" viewBox="0 0 53 23" fill="none" xmlns="http://www.w3.org/2000/svg">
<path fill-rule="evenodd" clip-rule="evenodd" d="M52.2916 2.71199C52.2935 4.09271 51.1758 5.21357 49.7951 5.21551L31.5023 5.24127C30.5333 5.24264 29.6524 5.80375 29.2416 6.68127L24.0886 17.6882C22.8307 20.3749 20.1075 22.0677 17.1416 22.0066L2.491 21.7048C1.11058 21.6763 0.0145817 20.5342 0.0430217 19.1538C0.0714614 17.7734 1.21357 16.6774 2.59399 16.7058L17.2446 17.0077C18.2332 17.028 19.141 16.4637 19.5603 15.5682L24.7133 4.56127C25.9458 1.92871 28.5884 0.245374 31.4952 0.24128L49.788 0.215518C51.1688 0.213573 52.2896 1.33128 52.2916 2.71199Z" fill="#18A0FB"/>
</svg>
