<svg width="53" height="48" viewBox="0 0 53 48" fill="none" xmlns="http://www.w3.org/2000/svg">
<path d="M52.0521 20.3598C53.316 22.549 53.316 25.2462 52.0521 27.4354L42.3398 44.2575C41.0759 46.4466 38.7401 47.7952 36.2122 47.7952H16.7878C14.2599 47.7952 11.9241 46.4466 10.6602 44.2575L0.947942 27.4354C-0.315981 25.2462 -0.31598 22.549 0.947942 20.3598L10.6602 3.53777C11.9241 1.34859 14.2599 -1.10496e-07 16.7878 0L36.2122 8.4907e-07C38.7401 9.59566e-07 41.0759 1.34859 42.3398 3.53777L52.0521 20.3598Z" fill="#C4E3F9"/>
<path d="M24.8364 17.6229L19.5322 24.1705C19.3861 24.3472 19.1985 24.4302 19.0269 24.4599C18.8553 24.4896 18.6753 24.4702 18.5357 24.3934C18.2077 24.2482 18.0172 23.8773 18.1049 23.5087L19.2286 18.7701L16.508 19.241C16.1648 19.3004 15.8368 19.1552 15.6878 18.8781C15.5101 18.5806 15.5243 18.2248 15.7312 17.9618L21.0599 11.4099C21.2871 11.1181 21.6792 11.0503 22.0115 11.22C22.3641 11.3609 22.53 11.7361 22.4424 12.1047L21.3144 16.8187L24.0596 16.3436C24.3782 16.2885 24.7105 16.4581 24.884 16.7311C25.0574 17.004 25.0433 17.3598 24.8364 17.6229Z" fill="#67A7D1"/>
<path d="M34.9905 30.3085C34.9905 34.1926 31.6642 37.3412 27.5611 37.3412C23.4581 37.3412 20.1318 34.1926 20.1318 30.3085C20.1318 26.4245 23.4581 23.2758 27.5611 23.2758C31.6642 23.2758 34.9905 26.4245 34.9905 30.3085Z" fill="#67A7D1"/>
<path d="M26.4637 19.4948C27.0027 18.7615 28.12 18.7615 28.6589 19.4948L33.4566 26.0235C34.0978 26.896 33.459 28.1108 32.359 28.1108H22.7633C21.6634 28.1108 21.0246 26.896 21.6658 26.0235L26.4637 19.4948Z" fill="#67A7D1"/>
</svg>
