<svg width="54" height="48" viewBox="0 0 54 48" fill="none" xmlns="http://www.w3.org/2000/svg">
<path d="M52.2751 20.4471C53.5444 22.6456 53.5444 25.3544 52.2751 27.5529L42.5212 44.4471C41.2519 46.6456 38.906 48 36.3674 48H16.8597C14.321 48 11.9752 46.6456 10.7058 44.4471L0.952003 27.5529C-0.317334 25.3544 -0.317334 22.6456 0.952003 20.4471L10.7058 3.55292C11.9752 1.35437 14.321 -1.10969e-07 16.8597 0L36.3674 8.52708e-07C38.906 9.63677e-07 41.2519 1.35437 42.5212 3.55293L52.2751 20.4471Z" fill="#6A7B5B"/>
<path d="M18.4603 9.2002C18.6311 8.4681 19.6734 8.4681 19.8442 9.2002L24.7949 30.4114C24.8989 30.8571 24.5606 31.2835 24.1029 31.2835H14.2016C13.7439 31.2835 13.4056 30.8571 13.5096 30.4114L18.4603 9.2002Z" fill="#3B492E"/>
<path d="M31.9724 17.7708C32.1735 17.0927 33.1339 17.0927 33.335 17.7708L38.2293 34.2791C38.3643 34.7345 38.0231 35.1916 37.548 35.1916H27.7594C27.2843 35.1916 26.9431 34.7345 27.0781 34.2791L31.9724 17.7708Z" fill="#3B492E"/>
</svg>
