<svg width="53" height="48" viewBox="0 0 53 48" fill="none" xmlns="http://www.w3.org/2000/svg">
<path d="M52.0301 20.3512C53.2934 22.5395 53.2934 25.2355 52.0301 27.4238L42.3219 44.2388C41.0585 46.427 38.7237 47.775 36.1969 47.775H16.7807C14.2539 47.775 11.9191 46.427 10.6557 44.2387L0.947541 27.4238C-0.315847 25.2355 -0.315847 22.5395 0.947541 20.3512L10.6557 3.53627C11.9191 1.34802 14.2539 -1.10449e-07 16.7807 0L36.1969 8.48711e-07C38.7237 9.5916e-07 41.0585 1.34802 42.3219 3.53627L52.0301 20.3512Z" fill="#7B9F5C"/>
<path d="M32.7068 27.9261C32.9831 27.649 33.432 27.649 33.7084 27.9261L37.823 32.0521C38.2676 32.4979 37.9518 33.2588 37.3222 33.2588H29.093C28.4633 33.2588 28.1476 32.4979 28.5922 32.0521L32.7068 27.9261Z" fill="#477520"/>
<path d="M16.4402 20.8533C16.7165 20.5762 17.1654 20.5762 17.4418 20.8533L21.5564 24.9794C22.001 25.4252 21.6852 26.186 21.0556 26.186H12.8263C12.1967 26.186 11.881 25.4252 12.3256 24.9794L16.4402 20.8533Z" fill="#477520"/>
<path d="M31.2927 13.0736C31.5691 12.7964 32.0179 12.7964 32.2943 13.0736L36.4089 17.1996C36.8535 17.6454 36.5377 18.4062 35.9081 18.4062H27.6789C27.0493 18.4062 26.7335 17.6454 27.1781 17.1996L31.2927 13.0736Z" fill="#477520"/>
</svg>
