<svg width="51" height="46" viewBox="0 0 51 46" fill="none" xmlns="http://www.w3.org/2000/svg">
<path d="M50.0878 19.5951C51.3041 21.7021 51.3041 24.2979 50.0878 26.4049L40.7421 42.5951C39.5259 44.7021 37.2782 46 34.8457 46H16.1543C13.7218 46 11.4741 44.7021 10.2579 42.5951L0.91217 26.4049C-0.304057 24.2979 -0.304057 21.7021 0.912171 19.5951L10.2579 3.40488C11.4741 1.29793 13.7218 -1.06345e-07 16.1543 0L34.8457 8.17178e-07C37.2782 9.23524e-07 39.5259 1.29794 40.7421 3.40489L50.0878 19.5951Z" fill="#D7D7D7"/>
<path fill-rule="evenodd" clip-rule="evenodd" d="M23.369 10.6842C23.369 10.3063 23.6872 10 24.0796 10H26.2113C26.6037 10 26.9218 10.3063 26.9218 10.6842V12.8273C28.7149 13.0573 30.367 13.7166 31.7631 14.6943L33.2218 13.2305C33.4936 12.9579 33.9433 12.9489 34.2265 13.2106L35.7646 14.6317C36.0478 14.8934 36.057 15.3265 35.7854 15.5991L34.2511 17.1387C35.1119 18.328 35.7179 19.701 35.9929 21.1844H38.2894C38.6818 21.1844 39 21.4907 39 21.8686V23.9212C39 24.2991 38.6818 24.6055 38.2894 24.6055H36.0295C35.7447 26.351 35.0029 27.9505 33.9259 29.2869L35.6298 30.956C35.9049 31.2255 35.901 31.6587 35.6212 31.9236L34.1009 33.3625C33.8211 33.6274 33.3712 33.6237 33.0961 33.3542L31.311 31.6055C30.0154 32.4183 28.5249 32.9671 26.9218 33.1727V35.3158C26.9218 35.6937 26.6037 36 26.2113 36H24.0796C23.6872 36 23.369 35.6937 23.369 35.3158V33.0579C21.9867 32.7877 20.7017 32.2599 19.5701 31.5289L17.8979 33.207C17.6262 33.4796 17.1764 33.4886 16.8933 33.227L15.3551 31.8058C15.0719 31.5442 15.0627 31.1111 15.3344 30.8384L16.9889 29.178C15.911 27.8031 15.1839 26.1587 14.9362 24.3684H12.7106C12.3182 24.3684 12 24.0621 12 23.6842V21.6316C12 21.2537 12.3182 20.9474 12.7106 20.9474H15.0555C15.3559 19.5222 15.963 18.2042 16.8077 17.0602L15.3406 15.623C15.0655 15.3535 15.0693 14.9203 15.3492 14.6554L16.8694 13.2165C17.1493 12.9516 17.5992 12.9553 17.8743 13.2248L19.318 14.6391C20.5093 13.8207 21.8831 13.2326 23.369 12.9421V10.6842ZM25.5007 27.7895C28.2477 27.7895 30.4746 25.6451 30.4746 23C30.4746 20.3549 28.2477 18.2105 25.5007 18.2105C22.7537 18.2105 20.5268 20.3549 20.5268 23C20.5268 25.6451 22.7537 27.7895 25.5007 27.7895Z" fill="#ABABAB"/>
</svg>
