<svg width="44" height="44" viewBox="0 0 38 38" fill="none" xmlns="http://www.w3.org/2000/svg">
<!--<path d="M36.8453 17C37.5598 18.2376 37.5598 19.7624 36.8453 21L29.6547 33.4545C28.9402 34.6921 27.6197 35.4545 26.1906 35.4545L11.8094 35.4545C10.3803 35.4545 9.05983 34.6921 8.3453 33.4545L1.1547 21C0.440169 19.7624 0.440169 18.2376 1.1547 17L8.3453 4.54552C9.05983 3.30791 10.3803 2.54552 11.8094 2.54552L26.1906 2.54552C27.6197 2.54552 28.9402 3.30791 29.6547 4.54552L36.8453 17Z" fill="#C0C0C0"/>-->
<path d="M36.8453 17C37.5598 18.2376 37.5598 19.7624 36.8453 21L29.6547 33.4545C28.9402 34.6921 27.6197 35.4545 26.1906 35.4545L11.8094 35.4545C10.3803 35.4545 9.05983 34.6921 8.3453 33.4545L1.1547 21C0.440169 19.7624 0.440169 18.2376 1.1547 17L8.3453 4.54552C9.05983 3.30791 10.3803 2.54552 11.8094 2.54552L26.1906 2.54552C27.6197 2.54552 28.9402 3.30791 29.6547 4.54552L36.8453 17Z" fill="#A0A0A0"/>
</svg>
