<svg width="54" height="48" viewBox="0 0 54 48" fill="none" xmlns="http://www.w3.org/2000/svg">
    <path d="M52.2751 20.4471C53.5444 22.6456 53.5444 25.3544 52.2751 27.5529L42.5212 44.4471C41.2519 46.6456 38.906 48 36.3674 48H16.8597C14.321 48 11.9752 46.6456 10.7058 44.4471L0.952003 27.5529C-0.317334 25.3544 -0.317334 22.6456 0.952003 20.4471L10.7058 3.55292C11.9752 1.35437 14.321 -1.10969e-07 16.8597 0L36.3674 8.52708e-07C38.906 9.63677e-07 41.2519 1.35437 42.5212 3.55293L52.2751 20.4471Z" fill="#E4CE60"/>
    <path d="M30.1667 18.3153C30.1667 23.0247 28.4169 26.8424 26.2585 26.8424C24.1 26.8424 22.3502 23.0247 22.3502 18.3153C22.3502 13.606 24.1 9.78833 26.2585 9.78833C28.4169 9.78833 30.1667 13.606 30.1667 18.3153Z" fill="#C2A61A"/>
    <path d="M22.7179 26.4439C25.0832 30.5407 25.491 34.7335 23.6288 35.8086C21.7666 36.8837 18.3396 34.4342 15.9742 30.3373C13.6089 26.2405 13.2011 22.0478 15.0633 20.9726C16.9255 19.8975 20.3526 22.3471 22.7179 26.4439Z" fill="#C2A61A"/>
    <path d="M36.5427 30.2444C34.1774 34.3412 30.7503 36.7908 28.8881 35.7156C27.0259 34.6405 27.4337 30.4478 29.7991 26.3509C32.1644 22.2541 35.5914 19.8045 37.4536 20.8797C39.3158 21.9548 38.908 26.1475 36.5427 30.2444Z" fill="#C2A61A"/>
</svg>
