<svg width="52" height="46" viewBox="0 0 52 46" fill="none" xmlns="http://www.w3.org/2000/svg">
<path d="M50.0969 19.5951C51.3134 21.7021 51.3134 24.2979 50.0969 26.4049L40.7495 42.5951C39.5331 44.7021 37.285 46 34.8521 46H16.1572C13.7243 46 11.4762 44.7021 10.2598 42.5951L0.912336 26.4049C-0.304112 24.2979 -0.304112 21.7021 0.912337 19.5951L10.2598 3.40488C11.4762 1.29793 13.7243 -1.06345e-07 16.1572 0L34.8521 8.17178e-07C37.285 9.23524e-07 39.5331 1.29794 40.7495 3.40489L50.0969 19.5951Z" fill="#B1785B"/>
<path d="M7.79932 23.681C7.79932 23.3049 8.1042 23 8.48029 23H24.1428C24.5189 23 24.8237 23.3049 24.8237 23.681V30.4907C24.8237 30.8668 24.5189 31.1717 24.1428 31.1717H8.48029C8.1042 31.1717 7.79932 30.8668 7.79932 30.4907V23.681Z" fill="#864A2C"/>
<path d="M26.1855 23.681C26.1855 23.3049 26.4904 23 26.8665 23H42.529C42.9051 23 43.21 23.3049 43.21 23.681V30.4907C43.21 30.8668 42.9051 31.1717 42.529 31.1717H26.8665C26.4904 31.1717 26.1855 30.8668 26.1855 30.4907V23.681Z" fill="#864A2C"/>
<path d="M16.6519 14.1473C16.6519 13.7712 16.9567 13.4663 17.3328 13.4663H32.9953C33.3714 13.4663 33.6763 13.7712 33.6763 14.1473V20.9571C33.6763 21.3331 33.3714 21.638 32.9953 21.638H17.3328C16.9567 21.638 16.6519 21.3331 16.6519 20.9571V14.1473Z" fill="#864A2C"/>
</svg>
