<svg width="53" height="27" viewBox="0 0 53 27" fill="none" xmlns="http://www.w3.org/2000/svg">
<path fill-rule="evenodd" clip-rule="evenodd" d="M47.9923 6.11771e-06C50.7537 -0.0042673 52.9958 2.23084 53 4.99226C53.0043 7.75368 50.7692 9.99572 48.0078 9.99999L31.7695 10.0251L27.1478 20.8725C25.6685 24.3445 22.2737 26.8821 18.22 26.7903L4.88686 26.4885C2.12615 26.426 -0.061191 24.1373 0.00130661 21.3766C0.0638042 18.6159 2.35247 16.4286 5.11319 16.491L18.0203 16.7832L22.6377 5.94591L31.3445 0.0257682L41 0.0108265M47.9923 6.11771e-06L31.3445 0.0257682ZM31.3445 0.0257682C27.377 0.031908 24.0872 2.54381 22.6377 5.94591ZM31.3445 0.0257682L22.6377 5.94591Z" fill="#18A0FB"/>
</svg>
